<svg width="17" height="15" viewBox="0 0 17 15" fill="none" xmlns="http://www.w3.org/2000/svg">
<path fill-rule="evenodd" clip-rule="evenodd" d="M12.9505 14.152C13.9411 14.5854 14.3125 13.6774 14.3125 13.6774L16.9333 0.511568C16.9127 -0.375785 15.7158 0.160754 15.7158 0.160754L1.04349 5.91823C1.04349 5.91823 0.341862 6.16586 0.403771 6.59922C0.465679 7.03258 1.02285 7.23894 1.02285 7.23894L4.71672 8.47711C4.71672 8.47711 5.83107 12.1297 6.05807 12.8313C6.26443 13.5123 6.45015 13.533 6.45015 13.533C6.65651 13.6155 6.84224 13.471 6.84224 13.471L9.23603 11.3043L12.9505 14.152ZM13.5904 2.8429C13.5904 2.8429 14.1063 2.53336 14.0856 2.8429C14.0856 2.8429 14.1682 2.88418 13.8999 3.17308C13.6523 3.42071 7.81226 8.66229 7.02809 9.36392C6.96618 9.40519 6.92491 9.4671 6.92491 9.54964L6.69791 11.4894C6.65664 11.6958 6.38837 11.7164 6.32646 11.5307L5.35656 8.35275C5.31529 8.22893 5.35656 8.08448 5.48038 8.00193L13.5904 2.8429Z" fill="white"/>
</svg>
