<svg width="21" height="21" viewBox="0 0 21 21" fill="none" xmlns="http://www.w3.org/2000/svg">
<path d="M8.54159 0.083252C13.213 0.083252 16.9999 3.87018 16.9999 8.54159C16.9999 10.4563 16.3637 12.2225 15.2911 13.6402L20.1582 18.5083C20.6138 18.9639 20.6138 19.7026 20.1582 20.1582C19.7026 20.6138 18.9639 20.6138 18.5083 20.1582L13.6402 15.2911C12.2225 16.3637 10.4563 16.9999 8.54159 16.9999C3.87018 16.9999 0.083252 13.213 0.083252 8.54159C0.083252 3.87018 3.87018 0.083252 8.54159 0.083252ZM8.54159 2.41659C5.15884 2.41659 2.41659 5.15884 2.41659 8.54159C2.41659 11.9243 5.15884 14.6666 8.54159 14.6666C11.9243 14.6666 14.6666 11.9243 14.6666 8.54159C14.6666 5.15884 11.9243 2.41659 8.54159 2.41659Z" fill="#BDBDBD"/>
</svg>
